<svg xmlns="http://www.w3.org/2000/svg" viewBox="0 0 68 85" x="0px" y="0px"><title>User_Interface_02</title><g><path d="M34,1A33,33,0,1,0,67,34,33,33,0,0,0,34,1ZM56.74,23.12,27.92,52a1,1,0,0,1-.71.29A1,1,0,0,1,26.5,52L11.26,36.71A1,1,0,0,1,11,36a1,1,0,0,1,.3-.71l5.65-5.66a1,1,0,0,1,1.42,0l8.88,8.89L49.67,16.05a1,1,0,0,1,1.42,0l5.65,5.66a1,1,0,0,1,0,1.41Z"/></g><text x="0" y="83" fill="#000000" font-size="5px" font-weight="bold" font-family="'Helvetica Neue', Helvetica, Arial-Unicode, Arial, Sans-serif">Created by Lars Meiertoberens</text><text x="0" y="88" fill="#000000" font-size="5px" font-weight="bold" font-family="'Helvetica Neue', Helvetica, Arial-Unicode, Arial, Sans-serif">from the Noun Project</text></svg>