<svg xmlns="http://www.w3.org/2000/svg" xmlns:xlink="http://www.w3.org/1999/xlink" version="1.1" x="0px" y="0px" viewBox="0 0 100 125" style="enable-background:new 0 0 100 100;" xml:space="preserve"><style type="text/css">
	.st0{fill:none;stroke:#9356DC;stroke-width:2;stroke-linecap:round;stroke-linejoin:round;stroke-miterlimit:10;}
	.st1{fill:#FFFFFF;}
	.st2{fill:none;stroke:#9356DC;stroke-width:2;stroke-miterlimit:10;}
	.st3{fill:#FFFFFF;stroke:#9356DC;stroke-width:2;stroke-linecap:round;stroke-miterlimit:10;}
	.st4{fill:none;stroke:#9356DC;stroke-width:2;stroke-linecap:round;stroke-miterlimit:10;}
	.st5{fill:none;stroke:#9356DC;stroke-width:2;stroke-linejoin:round;stroke-miterlimit:10;}
	.st6{fill:#FFFFFF;stroke:#9356DC;stroke-width:2;stroke-miterlimit:10;}
	.st7{fill:none;stroke:#9356DC;stroke-width:2;stroke-linecap:round;stroke-linejoin:round;}
	.st8{fill:none;stroke:#9356DC;stroke-width:2;stroke-linecap:round;stroke-linejoin:round;stroke-dasharray:8.7778,8.7778;}
	.st9{fill:none;stroke:#9356DC;stroke-width:2.2;stroke-linecap:round;stroke-linejoin:round;stroke-miterlimit:10;}
	.st10{fill:none;stroke:#9356DC;stroke-width:2;stroke-linecap:round;stroke-miterlimit:10;stroke-dasharray:0.9328,3.731;}
	
		.st11{fill:none;stroke:#9356DC;stroke-width:2;stroke-linecap:round;stroke-linejoin:round;stroke-miterlimit:10;stroke-dasharray:1,4;}
	.st12{fill:none;stroke:#9356DC;stroke-miterlimit:10;}
	.st13{fill:none;stroke:#9356DC;stroke-width:10;stroke-linecap:round;stroke-linejoin:round;stroke-miterlimit:10;}
</style><path fill="#9356DC" d="M83.686,21.05c-4.245-4.244-9.904-6.582-15.936-6.582c-6.032,0-11.692,2.338-15.937,6.582l-1.816,1.814l-1.813-1.814  c-4.244-4.244-9.904-6.582-15.937-6.582c-6.033,0-11.692,2.338-15.936,6.582c-4.243,4.242-6.58,9.901-6.58,15.937  c0,6.034,2.337,11.694,6.58,15.938l31.845,31.845c0.492,0.492,1.146,0.763,1.842,0.763c0.695,0,1.349-0.271,1.841-0.763  l31.847-31.845c4.245-4.244,6.583-9.904,6.583-15.938C90.269,30.955,87.931,25.295,83.686,21.05z M76.537,45.776L50.704,71.607  c-0.189,0.188-0.439,0.293-0.706,0.293c-0.271,0-0.516-0.102-0.707-0.293L23.46,45.776c-2.333-2.336-3.618-5.457-3.618-8.789  c0-3.33,1.285-6.451,3.618-8.787c2.335-2.335,5.456-3.621,8.787-3.621s6.452,1.286,8.787,3.621l7.179,7.179  c0.477,0.476,1.111,0.737,1.785,0.737s1.308-0.262,1.785-0.738l7.18-7.178c2.335-2.335,5.456-3.621,8.787-3.621  s6.452,1.286,8.787,3.621c2.335,2.334,3.62,5.454,3.62,8.787C80.157,40.321,78.872,43.442,76.537,45.776z"/><text x="0" y="115" fill="#000000" font-size="5px" font-weight="bold" font-family="'Helvetica Neue', Helvetica, Arial-Unicode, Arial, Sans-serif">Created by Eliricon</text><text x="0" y="120" fill="#000000" font-size="5px" font-weight="bold" font-family="'Helvetica Neue', Helvetica, Arial-Unicode, Arial, Sans-serif">from the Noun Project</text></svg>