<svg xmlns:dc="http://purl.org/dc/elements/1.1/" xmlns:cc="http://creativecommons.org/ns#" xmlns:rdf="http://www.w3.org/1999/02/22-rdf-syntax-ns#" xmlns:svg="http://www.w3.org/2000/svg" xmlns="http://www.w3.org/2000/svg" xmlns:sodipodi="http://sodipodi.sourceforge.net/DTD/sodipodi-0.dtd" xmlns:inkscape="http://www.inkscape.org/namespaces/inkscape" version="1.1" x="0px" y="0px" viewBox="0 0 100 125"><g transform="translate(0,-952.36218)"><path d="m 20.00004,1002.3594 c 0.032,0.6029 0.2472,1.0768 0.5312,1.375 l 18,19 c 0.8283,0.8315 2.0673,0.7981 2.8282,0.078 0.7608,-0.7199 0.798,-2.0672 0.078,-2.8281 l -14.7813,-15.625 51.34382,0 c 1.1045,0 2,-0.8954 2,-2 0,-1.1046 -0.8955,-2 -2,-2 l -51.34382,0 14.7813,-15.62496 c 0.7199,-0.7609 0.6574,-2.0824 -0.078,-2.8281 -0.7609,-0.7714 -2.1082,-0.6828 -2.8282,0.078 l -18,18.99996 c -0.4748,0.4855 -0.5002,0.8982 -0.5312,1.375 z" style="text-indent:0;text-transform:none;direction:ltr;block-progression:tb;baseline-shift:baseline;color:#000000;enable-background:accumulate;" fill="#000000" fill-opacity="1" stroke="none" marker="none" visibility="visible" display="inline" overflow="visible"/></g><text x="0" y="115" fill="#000000" font-size="5px" font-weight="bold" font-family="'Helvetica Neue', Helvetica, Arial-Unicode, Arial, Sans-serif">Created by Barracuda</text><text x="0" y="120" fill="#000000" font-size="5px" font-weight="bold" font-family="'Helvetica Neue', Helvetica, Arial-Unicode, Arial, Sans-serif">from the Noun Project</text></svg>