<svg xmlns="http://www.w3.org/2000/svg" xmlns:xlink="http://www.w3.org/1999/xlink" version="1.1" x="0px" y="0px" viewBox="0 0 70 87.5" style="enable-background:new 0 0 70 70;" xml:space="preserve"><g><path d="M49.4982185,8.9719238H24.349781c-1.6591797,0-3.0092773,1.3500977-3.0092773,3.0092773v46.0375977   c0,1.6591797,1.3500977,3.0092773,3.0092773,3.0092773h25.1484375c1.6591797,0,3.0092773-1.3500977,3.0092773-3.0092773V11.9812012   C52.5074959,10.3220215,51.1573982,8.9719238,49.4982185,8.9719238z M51.5074959,58.0187988   c0,1.1079102-0.9013672,2.0092773-2.0092773,2.0092773H24.349781c-1.1079102,0-2.0092773-0.9013672-2.0092773-2.0092773V11.9812012   c0-1.1079102,0.9013672-2.0092773,2.0092773-2.0092773h25.1484375c1.1079102,0,2.0092773,0.9013672,2.0092773,2.0092773V58.0187988   z"/><path d="M49.1583748,12.7180176h-24.46875c-0.2763672,0-0.5,0.2236328-0.5,0.5V52.248291c0,0.2763672,0.2236328,0.5,0.5,0.5   h24.46875c0.2763672,0,0.5-0.2236328,0.5-0.5V13.2180176C49.6583748,12.9416504,49.434742,12.7180176,49.1583748,12.7180176z    M48.6583748,51.748291h-23.46875V13.7180176h23.46875V51.748291z"/><path d="M38.4908943,54.3210449h-3.1337891c-0.2763672,0-0.5,0.2236328-0.5,0.5v3.1337891c0,0.2763672,0.2236328,0.5,0.5,0.5   h3.1337891c0.2763672,0,0.5-0.2236328,0.5-0.5v-3.1337891C38.9908943,54.5446777,38.7672615,54.3210449,38.4908943,54.3210449z    M37.9908943,57.454834h-2.1337891v-2.1337891h2.1337891V57.454834z"/></g><text x="0" y="85" fill="#000000" font-size="5px" font-weight="bold" font-family="'Helvetica Neue', Helvetica, Arial-Unicode, Arial, Sans-serif">Created by Tauficon</text><text x="0" y="90" fill="#000000" font-size="5px" font-weight="bold" font-family="'Helvetica Neue', Helvetica, Arial-Unicode, Arial, Sans-serif">from the Noun Project</text></svg>