<svg xmlns="http://www.w3.org/2000/svg" data-name="Layer 1" viewBox="0 0 100 125" x="0px" y="0px"><title>Artboard 3</title><path fill="#FFFFFF" d="M16.23,40.74,17.4,4a3.15,3.15,0,0,1,3.15-3h0A3.15,3.15,0,0,1,23.7,4L24.53,28a2.63,2.63,0,0,0,2.26,2.57,2.53,2.53,0,0,0,2.8-2.42l.82-24a3.23,3.23,0,0,1,2.52-3.1,3.82,3.82,0,0,1,1.26,0,3.23,3.23,0,0,1,2.52,3.1l.82,24a2.53,2.53,0,0,0,2.8,2.42A2.63,2.63,0,0,0,42.59,28L43.41,4a3.15,3.15,0,0,1,3.15-3h0a3.15,3.15,0,0,1,3.15,3l1.17,36.7a9.8,9.8,0,0,1-4.73,8.73L40.34,53V95.54A3.46,3.46,0,0,1,36.88,99H30.15a3.46,3.46,0,0,1-3.46-3.46V52.93L21,49.48A9.8,9.8,0,0,1,16.23,40.74Zm45.86,23h8V95.54A3.46,3.46,0,0,0,73.58,99h6.73c1.91,0,3.46-1.55,3.46-6.77l0-88.79a2.58,2.58,0,0,0-3.94-2h0A43.13,43.13,0,0,0,59.57,38V61.27A2.52,2.52,0,0,0,62.09,63.79Z"/><text x="0" y="115" fill="#FFFFFF" font-size="5px" font-weight="bold" font-family="'Helvetica Neue', Helvetica, Arial-Unicode, Arial, Sans-serif">Created by Gregor Cresnar</text><text x="0" y="120" fill="#FFFFFF" font-size="5px" font-weight="bold" font-family="'Helvetica Neue', Helvetica, Arial-Unicode, Arial, Sans-serif">from the Noun Project</text></svg>